<?xml version="1.0" encoding="iso-8859-1"?>
<!-- Generator: Adobe Illustrator 19.0.0, SVG Export Plug-In . SVG Version: 6.00 Build 0)  -->
<svg version="1.1" id="Capa_1" xmlns="http://www.w3.org/2000/svg" xmlns:xlink="http://www.w3.org/1999/xlink" x="0px" y="0px"
	 viewBox="0 0 512 512" style="enable-background:new 0 0 512 512;" xml:space="preserve">
<g>
	<g>
		<path d="M256,241c-8.276,0-15,6.724-15,15s6.724,15,15,15s15-6.724,15-15S264.276,241,256,241z"/>
	</g>
</g>
<g>
	<g>
		<path d="M256,0C115.39,0,0,115.39,0,256s115.39,256,256,256s256-115.39,256-256S396.61,0,256,0z M301,421h-90
			c-8.291,0-15-6.709-15-15c0-8.291,6.709-15,15-15h90c8.291,0,15,6.709,15,15C316,414.291,309.291,421,301,421z M312.616,220.595
			l-16.126,16.126c2.807,5.867,4.51,12.352,4.51,19.279c0,24.814-20.186,45-45,45c-24.814,0-45-20.186-45-45
			c0-24.814,20.186-45,45-45c6.927,0,13.412,1.703,19.279,4.51l16.126-16.126c5.859-5.859,15.352-5.859,21.211,0
			C318.475,205.243,318.476,214.735,312.616,220.595z M394.155,393.481c-0.115,0.123-0.15,0.286-0.269,0.405
			c-5.86,5.86-15.351,5.86-21.211,0l-0.015-0.015c-0.013-0.013-0.031-0.016-0.044-0.029s-0.016-0.031-0.029-0.044l-42.334-42.334
			c-5.859-5.859-5.859-15.352,0-21.211s15.352-5.859,21.211,0l30.731,30.731c21.46-25.721,34.312-56.695,37.337-89.984H376
			c-8.291,0-15-6.709-15-15c0-8.291,6.709-15,15-15h44.24c-3.105-34.243-16.663-65.497-37.522-90.507l-31.254,31.254
			c-5.86,5.86-15.351,5.86-21.211,0c-5.859-5.859-5.859-15.352,0-21.211l31.254-31.254c-25.01-20.86-56.264-34.417-90.507-37.522
			V136c0,8.291-6.709,15-15,15c-8.291,0-15-6.709-15-15V91.76c-34.243,3.105-65.497,16.663-90.507,37.522l31.254,31.254
			c5.859,5.859,5.859,15.352,0,21.211c-5.86,5.86-15.351,5.86-21.211,0l-31.254-31.254c-20.86,25.01-34.417,56.264-37.522,90.507
			H136c8.291,0,15,6.709,15,15s-6.709,15-15,15H92.469c3.025,33.289,15.877,64.263,37.337,89.984l30.731-30.731
			c5.859-5.859,15.352-5.859,21.211,0c5.859,5.859,5.859,15.352,0,21.211l-42.334,42.334c-0.013,0.013-0.016,0.031-0.029,0.044
			s-0.031,0.016-0.044,0.029l-0.015,0.015c-5.86,5.86-15.351,5.86-21.211,0c-0.119-0.119-0.154-0.282-0.269-0.405
			C81.193,356.649,61,307.854,61,256c0-107.238,87.272-195,195-195c107.238,0,195,87.272,195,195
			C451,307.854,430.807,356.649,394.155,393.481z"/>
	</g>
</g>
<g>
</g>
<g>
</g>
<g>
</g>
<g>
</g>
<g>
</g>
<g>
</g>
<g>
</g>
<g>
</g>
<g>
</g>
<g>
</g>
<g>
</g>
<g>
</g>
<g>
</g>
<g>
</g>
<g>
</g>
</svg>
